<?xml version="1.0" encoding="iso-8859-1"?>
<!-- Generator: Adobe Illustrator 19.0.0, SVG Export Plug-In . SVG Version: 6.00 Build 0)  -->
<svg version="1.1" id="Capa_1" xmlns="http://www.w3.org/2000/svg" xmlns:xlink="http://www.w3.org/1999/xlink" x="0px" y="0px"
	 viewBox="0 0 480 480" style="enable-background:new 0 0 480 480;" xml:space="preserve">
<g>
	<g>
		<path d="M332,328h-16v-16h24c4.418,0,8-3.582,8-8v-32c0-4.418-3.582-8-8-8h-16V80c0-4.418-3.582-8-8-8h-24V16h32V0H148v16h32v56
			h-24c-4.418,0-8,3.582-8,8v184h-16c-4.418,0-8,3.582-8,8v32c0,4.418,3.582,8,8,8h24v152c0,8.837,7.163,16,16,16h128
			c8.837,0,16-7.163,16-16v-24h16c13.255,0,24-10.745,24-24v-64C356,338.745,345.255,328,332,328z M196,16h80v56h-80V16z M196,88h80
			v144h-80V88z M300,464H172v-72h128V464z M300,376H172v-64h128V376z M140,296v-16h16c4.418,0,8-3.582,8-8V88h16v152
			c0,4.418,3.582,8,8,8h96c4.418,0,8-3.582,8-8V88h16v184c0,4.418,3.582,8,8,8h16v16H140z M340,416c0,4.418-3.582,8-8,8h-16v-80h16
			c4.418,0,8,3.582,8,8V416z"/>
	</g>
</g>
<g>
	<g>
		<rect x="228" y="104" width="16" height="16"/>
	</g>
</g>
<g>
	<g>
		<rect x="228" y="136" width="16" height="16"/>
	</g>
</g>
<g>
	<g>
		<rect x="228" y="168" width="16" height="16"/>
	</g>
</g>
<g>
	<g>
		<rect x="228" y="200" width="16" height="16"/>
	</g>
</g>
<g>
</g>
<g>
</g>
<g>
</g>
<g>
</g>
<g>
</g>
<g>
</g>
<g>
</g>
<g>
</g>
<g>
</g>
<g>
</g>
<g>
</g>
<g>
</g>
<g>
</g>
<g>
</g>
<g>
</g>
</svg>
