<svg height="479pt" viewBox="0 0 479.75465 479" width="479pt" xmlns="http://www.w3.org/2000/svg"><path d="m.742188 369.511719c7.488281 62.519531 82.832031 109.660156 175.257812 109.660156 83.09375 0 153.679688-38.347656 171.675781-93.257813l.015625-.027343c2.816406-8.476563 4.269532-17.339844 4.308594-26.269531-.042969-2.691407-.230469-5.375-.5625-8.042969l-.09375-.851563v-.003906c-3.273438-23.664062-14.996094-45.339844-33.011719-61.03125 20.511719 9.027344 42.613281 13.875 65.019531 14.269531 18.601563.347657 36.960938-4.261719 53.191407-13.351562l.007812-.011719c6.230469-3.539062 11.972657-7.875 17.078125-12.902344 3.839844-3.910156 7.269532-8.199218 10.246094-12.800781l.007812-.011719c33.742188-50.773437 12.152344-136.101562-50.226562-198.476562-57.761719-57.761719-137.175781-81.257813-188.847656-55.859375-8.308594 4.019531-15.898438 9.378906-22.464844 15.863281-2.394531 2.453125-4.628906 5.054688-6.695312 7.792969l-.003907.003906c-38.4375 49.496094-17.925781 138.890625 46.699219 203.515625 6.386719 6.367188 13.105469 12.394531 20.121094 18.058594-27.609375-10.503906-56.921875-15.832032-86.464844-15.714844-82.519531 0-154.878906 39.636719-172.054688 94.246094-2.59375 8.183594-3.9257808 16.71875-3.945312 25.308594.046875 3.308593.292969 6.609374.738281 9.890624zm175.257812 93.660156c-77.820312 0-144.246094-36.949219-157.46875-85.765625.316406.03125.640625.066406.949219.097656 2.859375.324219 5.582031.679688 8.125 1.085938.371093.058594.714843.125 1.082031.1875 2.375.394531 4.640625.820312 6.824219 1.273437.363281.074219.742187.144531 1.105469.222657 2.335937.5 4.589843 1.023437 6.804687 1.566406.480469.117187.957031.238281 1.429687.355468 2.132813.535157 4.242188 1.074219 6.371094 1.628907 20.625 5.851562 42 8.628906 63.433594 8.238281 21.410156.394531 42.761719-2.390625 63.355469-8.257812 19.273437-5.535157 39.269531-8.144532 59.316406-7.742188 20.054687-.402344 40.058594 2.207031 59.339844 7.738281 2.003906.519531 4.035156 1.042969 6.097656 1.5625.476563.121094.953125.238281 1.433594.359375 2.1875.542969 4.433593 1.074219 6.769531 1.585938.285156.0625.589844.121094.878906.183594 2.160156.460937 4.414063.902343 6.765625 1.320312.417969.074219.816407.152344 1.238281.222656 2.550782.4375 5.246094.832032 8.09375 1.191406.253907.035157.464844.078126.722657.109376-20.675781 42.734374-82.644531 72.835937-152.667969 72.835937zm226.34375-385.453125c52.410156 52.414062 74.351562 124.128906 53.375 169.085938-.214844-.25-.433594-.5-.640625-.75-2.121094-2.496094-4.085937-4.90625-5.835937-7.195313-.15625-.203125-.289063-.394531-.441407-.59375-1.667969-2.203125-3.191406-4.328125-4.617187-6.398437-.230469-.335938-.472656-.679688-.699219-1.011719-1.453125-2.144531-2.8125-4.242188-4.121094-6.320313-.25-.398437-.496093-.792968-.746093-1.191406-1.261719-2.023438-2.496094-4.039062-3.734376-6.074219-10.714843-18.554687-24.117187-35.417969-39.765624-50.046875-15.085938-15.183594-32.347657-28.042968-51.210938-38.152344-17.679688-9.441406-33.839844-21.476562-47.945312-35.710937-14.660157-13.664063-27.191407-29.449219-37.175782-46.824219-1.015625-1.675781-2.050781-3.371094-3.105468-5.078125l-.808594-1.300781c-1.132813-1.820312-2.300782-3.664062-3.550782-5.558594-.136718-.210937-.289062-.429687-.429687-.640625-1.128906-1.703125-2.332031-3.449219-3.609375-5.242187-.296875-.414063-.582031-.824219-.886719-1.246094-1.425781-1.96875-2.949219-3.996094-4.605469-6.097656-.109374-.144532-.199218-.273438-.3125-.414063 45.714844-15.378906 111.382813 7.273438 160.867188 56.761719zm-188.6875-40c3.84375-3.808594 8.144531-7.128906 12.800781-9.878906.136719.160156.25.3125.382813.472656 1.765625 2.148438 3.371094 4.203125 4.867187 6.195312.242188.324219.503907.660157.742188.980469 1.496093 2.03125 2.871093 3.996094 4.171875 5.917969.257812.382812.515625.761719.765625 1.140625 1.269531 1.90625 2.484375 3.785156 3.644531 5.644531.210938.335938.417969.671875.625 1.007813 1.164062 1.878906 2.304688 3.746093 3.453125 5.640625 10.695313 18.535156 24.078125 35.386718 39.710937 50.003906 15.085938 15.179688 32.347657 28.039062 51.210938 38.152344 17.679688 9.4375 33.839844 21.472656 47.945312 35.710937 14.679688 13.679688 27.230469 29.480469 37.238282 46.875.824218 1.351563 1.652344 2.710938 2.492187 4.082031.285157.460938.582031.933594.871094 1.398438.589844.949219 1.179687 1.898438 1.789063 2.859375.359374.566406.738281 1.140625 1.105468 1.710937.574219.894532 1.15625 1.789063 1.765625 2.703126.40625.609374.832031 1.234374 1.257813 1.855468.605468.890625 1.230468 1.792969 1.875 2.707032.46875.660156.953125 1.332031 1.441406 2.007812.664062.910156 1.347656 1.835938 2.058594 2.773438.535156.707031 1.082031 1.425781 1.644531 2.148437.738281.949219 1.519531 1.921875 2.3125 2.902344.605469.75 1.210937 1.5 1.855469 2.269531.835937 1.007812 1.734375 2.046875 2.636718 3.089844.695313.800781 1.371094 1.59375 2.101563 2.414062.179687.203125.332031.390625.515625.59375-1.429688 1.851563-2.972656 3.617188-4.621094 5.28125-2.585937 2.5625-5.398437 4.890625-8.402344 6.957032l-.277343-.304688c-.511719-.582031-.96875-1.132812-1.457031-1.699219-.925782-1.074219-1.847657-2.140625-2.699219-3.171875-.527344-.640625-1.019531-1.257812-1.523438-1.882812-.738281-.921875-1.46875-1.835938-2.15625-2.726563-.492187-.636719-.960937-1.257812-1.429687-1.882812-.636719-.847657-1.257813-1.6875-1.855469-2.515625-.441406-.605469-.871094-1.207032-1.289063-1.804688-.585937-.832031-1.15625-1.65625-1.707031-2.472656-.378906-.558594-.761719-1.117188-1.128906-1.671875-.558594-.847656-1.105469-1.6875-1.644531-2.523437-.328125-.507813-.660156-1.019532-.980469-1.527344-.578125-.910156-1.140625-1.816406-1.699219-2.71875-.265625-.425782-.535156-.855469-.796875-1.285156-.792969-1.289063-1.582031-2.578126-2.367187-3.871094-10.726563-18.554688-24.132813-35.421875-39.785156-50.054688-15.085938-15.183594-32.347657-28.042968-51.210938-38.152344-17.679688-9.4375-33.839844-21.476562-47.945312-35.710937-14.671876-13.675781-27.214844-29.46875-37.214844-46.851563-1.234375-2.027343-2.496094-4.082031-3.785156-6.160156-.273438-.4375-.542969-.875-.820313-1.316406-1.316406-2.09375-2.714844-4.234375-4.195313-6.429688-.308593-.460937-.625-.921874-.945312-1.386718-1.542969-2.246094-3.203125-4.558594-5.023438-6.96875-.304687-.398438-.632812-.8125-.941406-1.214844-1.972656-2.566406-4.085937-5.207031-6.484375-8.011719l-.0625-.078125c.386719-.421875.773438-.828125 1.167969-1.222656zm40 188.6875c-55.445312-55.449219-76.390625-129.503906-50.890625-174.132812.191406.234374.394531.472656.582031.703124 1.71875 2.117188 3.324219 4.164063 4.789063 6.136719.277343.371094.527343.730469.796875 1.097657 1.320312 1.808593 2.5625 3.574218 3.726562 5.296874.207032.3125.429688.625.632813.933594 1.285156 1.925782 2.496093 3.816406 3.671875 5.695313.257812.410156.507812.816406.761718 1.222656 1.125 1.816406 2.234376 3.628906 3.347657 5.460937 10.710937 18.539063 24.105469 35.398438 39.746093 50.023438 15.085938 15.179688 32.347657 28.039062 51.210938 38.148438 17.679688 9.441406 33.839844 21.476562 47.945312 35.710937 14.683594 13.6875 27.242188 29.492187 37.257813 46.886719 1.230469 2.023437 2.488281 4.066406 3.773437 6.136718.300782.484376.597657.964844.90625 1.449219 1.339844 2.125 2.75 4.296875 4.261719 6.527344.304688.449219.628907.910156.941407 1.367187 1.566406 2.269532 3.226562 4.597657 5.082031 7.039063l.238281.328125c1.882812 2.464844 4.015625 5.074219 6.289062 7.765625.292969.34375.507813.648437.808594 1-45.410156 18.792969-114.542968-3.472656-165.878906-54.796875zm-77.65625 29.65625c78.511719 0 145.070312 37.351562 157.679688 86.675781-.3125-.035156-.632813-.066406-.9375-.097656-2.90625-.324219-5.671876-.683594-8.25-1.09375-.34375-.054687-.664063-.117187-1.003907-.171875-2.371093-.390625-4.632812-.816406-6.808593-1.265625-.433594-.089844-.882813-.171875-1.308594-.265625-2.292969-.488281-4.507813-1.003906-6.683594-1.535156-.570312-.140625-1.144531-.28125-1.710938-.425782-2.074218-.519531-4.132812-1.042968-6.207031-1.582031-20.625-5.851562-42.003906-8.628906-63.441406-8.238281-21.410156-.394531-42.761719 2.386719-63.355469 8.257812-19.273437 5.53125-39.269531 8.140626-59.316406 7.742188-20.058594.398438-40.0625-2.210938-59.347656-7.738281-1.980469-.515625-3.984375-1.03125-6.015625-1.542969-.554688-.140625-1.109375-.277344-1.671875-.417969-2.164063-.535156-4.382813-1.058593-6.695313-1.5625-.363281-.082031-.746093-.15625-1.117187-.234375-2.136719-.453125-4.367188-.886718-6.691406-1.296875-.429688-.074219-.839844-.15625-1.277344-.230469-2.566406-.433593-5.289063-.824218-8.148438-1.183593-.289062-.035157-.53125-.082031-.824218-.117188 20.242187-43.21875 82.425781-73.675781 153.132812-73.675781zm-158.425781 89.1875.300781.035156c3.09375.316406 5.949219.699219 8.671875 1.113282.386719.0625.796875.113281 1.179687.175781 2.625.421875 5.09375.882812 7.480469 1.375.480469.097656.964844.195312 1.4375.300781 2.304688.492188 4.535157 1.003906 6.71875 1.539062.503907.125 1 .25 1.5.375 2.144531.539063 4.273438 1.085938 6.414063 1.644532 20.601562 5.863281 41.960937 8.644531 63.378906 8.253906 21.410156.394531 42.761719-2.390625 63.355469-8.257812 19.273437-5.535157 39.269531-8.144532 59.316406-7.742188 20.082031-.398438 40.109375 2.207031 59.421875 7.726562 1.417969.367188 2.84375.734376 4.28125 1.101563.546875.140625 1.105469.277344 1.65625.414063.984375.25 1.972656.496093 2.980469.738281.585937.140625 1.191406.28125 1.789062.421875.996094.234375 2.003907.464844 3.03125.691406.636719.140625 1.285157.277344 1.9375.414062 1.023438.21875 2.070313.429688 3.136719.636719.6875.132813 1.382812.265625 2.085938.394531 1.101562.199219 2.238281.394532 3.386718.582032.71875.117187 1.433594.234375 2.171875.347656 1.242188.191406 2.539063.363281 3.851563.539062.707031.09375 1.398437.191407 2.132812.277344 1.53125.183594 3.136719.347656 4.769532.507813.589843.054687 1.140624.121093 1.746093.175781l.289063.03125c.003906.183594.003906.371094.003906.554688-.015625 5.132812-.625 10.246093-1.816406 15.238281l-.324219-.039063c-3.039063-.316406-5.84375-.695312-8.523437-1.105468-.414063-.066407-.847657-.121094-1.253907-.1875-2.582031-.417969-5.015625-.875-7.363281-1.359376-.507812-.101562-1.011719-.207031-1.511719-.3125-2.265625-.488281-4.46875-.996093-6.621093-1.523437-.519532-.128906-1.035157-.261719-1.550782-.390625-2.117187-.53125-4.214844-1.070312-6.332031-1.621094-20.601563-5.867187-41.957031-8.648437-63.375-8.253906-21.410156-.394531-42.761719 2.386719-63.355469 8.257812-19.273437 5.53125-39.269531 8.140626-59.316406 7.742188-20.078125.394531-40.105469-2.210938-59.414062-7.726562-1.449219-.375-2.90625-.753907-4.375-1.128907-.433594-.109375-.882813-.21875-1.324219-.332031-1.058594-.265625-2.125-.53125-3.214844-.796875-.601563-.144531-1.222656-.285156-1.835937-.429687-.960938-.226563-1.929688-.449219-2.917969-.667969-.679688-.152344-1.378907-.296875-2.078125-.445313-.964844-.203125-1.949219-.402344-2.949219-.597656-.75-.148438-1.507813-.289062-2.28125-.429688-1.007813-.183593-2.046875-.359374-3.097656-.535156-.8125-.132812-1.625-.269531-2.46875-.394531-1.082031-.167969-2.214844-.320313-3.351563-.46875-.875-.117187-1.738281-.238281-2.644531-.347656-1.253906-.148438-2.574219-.28125-3.894531-.414063-.859375-.085937-1.683594-.183594-2.578125-.261718l-.203125-.019532c-.015625-.484375-.027344-.96875-.027344-1.449218.007812-4.832032.535156-9.648438 1.574219-14.367188zm0 0"/><path d="m91.679688 412.457031c-3.289063-1.699219-6.414063-3.484375-9.375-5.355469-3.738282-2.339843-8.664063-1.210937-11.011719 2.519532-2.347657 3.730468-1.234375 8.660156 2.488281 11.019531 3.328125 2.097656 6.839844 4.105469 10.539062 6.027344 3.925782 2.03125 8.753907.496093 10.785157-3.425781 2.03125-3.925782.5-8.753907-3.425781-10.785157zm0 0"/><path d="m280.308594 399.433594c-25.003906 20.171875-63.023438 31.738281-104.308594 31.738281-20.867188.167969-41.628906-2.953125-61.523438-9.25-4.195312-1.359375-8.699218.9375-10.066406 5.132813-1.367187 4.195312.921875 8.703124 5.113282 10.078124 21.492187 6.820313 43.925781 10.207032 66.476562 10.039063 44.875 0 86.554688-12.859375 114.355469-35.285156 3.4375-2.777344 3.976562-7.8125 1.203125-11.25-2.773438-3.441407-7.8125-3.980469-11.25-1.203125zm0 0"/><path d="m228.765625 125.90625c-.882813-3.152344-1.632813-6.265625-2.246094-9.335938-.867187-4.332031-5.082031-7.140624-9.414062-6.273437s-7.140625 5.082031-6.273438 9.414063c.691407 3.449218 1.535157 6.949218 2.527344 10.507812 1.191406 4.253906 5.605469 6.734375 9.859375 5.546875 4.253906-1.191406 6.738281-5.605469 5.546875-9.859375zm0 0"/><path d="m385.628906 264.0625c.273438-4.410156-3.082031-8.207031-7.492187-8.476562-32.898438-2.027344-71.925781-21.878907-101.851563-51.808594-15.066406-14.882813-27.605468-32.125-37.117187-51.046875-1.96875-3.949219-6.757813-5.558594-10.710938-3.601563-3.953125 1.957032-5.574219 6.746094-3.625 10.703125 10.285157 20.480469 23.84375 39.144531 40.140625 55.257813 33.0625 33.066406 75 54.175781 112.179688 56.464844.167968.011718.335937.015624.5.015624 4.222656-.007812 7.714844-3.292968 7.976562-7.507812zm0 0"/></svg>