<?xml version="1.0" encoding="iso-8859-1"?>
<!-- Generator: Adobe Illustrator 17.1.0, SVG Export Plug-In . SVG Version: 6.00 Build 0)  -->
<!DOCTYPE svg PUBLIC "-//W3C//DTD SVG 1.1//EN" "http://www.w3.org/Graphics/SVG/1.1/DTD/svg11.dtd">
<svg version="1.1" id="Capa_1" xmlns="http://www.w3.org/2000/svg" xmlns:xlink="http://www.w3.org/1999/xlink" x="0px" y="0px"
	 viewBox="0 0 345.586 345.586" style="enable-background:new 0 0 345.586 345.586;" xml:space="preserve">
<path d="M264.593,143.871c1.214-4.248,5.643-6.708,9.891-5.494l1.278,0.365c4.248,1.215,6.708,5.643,5.493,9.891
	c-1.004,3.514-4.207,5.804-7.688,5.804c-0.728,0-1.468-0.1-2.203-0.31l-1.278-0.365
	C265.838,152.547,263.378,148.119,264.593,143.871z M340.57,165.627c-3.879,13.544-9.859,26.245-17.774,37.75
	c-2.503,3.641-7.483,4.563-11.125,2.057c-3.64-2.504-4.561-7.484-2.057-11.125c6.932-10.077,12.172-21.21,15.574-33.088
	c17.218-60.117-17.684-123.035-77.802-140.254C191.133,4.858,132.426,34.384,111.005,87.501c6.012-0.859,12.157-1.305,18.402-1.305
	c51.264,0,97.759,30.311,118.453,77.22c1.783,4.042-0.048,8.765-4.09,10.548s-8.765-0.047-10.548-4.09
	c-18.137-41.113-58.887-67.678-103.814-67.678C66.875,102.196,16,153.072,16,215.607c0,62.534,50.875,113.41,113.408,113.41
	c28.813,0,55.798-10.57,76.767-29.919c-9.392-9.725-15.177-22.953-15.177-37.509v-18.41c0-29.79,24.236-54.026,54.026-54.026
	s54.026,24.236,54.026,54.026v18.41c0,29.791-24.236,54.027-54.026,54.027c-9.409,0-18.264-2.418-25.977-6.665
	c-24.204,23.301-55.819,36.065-89.639,36.065C58.052,345.017,0,286.965,0,215.607c0-58.574,39.117-108.186,92.599-124.08
	c20.789-66.856,91.543-105.318,159.193-85.941C320.392,25.233,360.217,97.027,340.57,165.627z M251.47,257.148
	c-9.191,11.468-11.997,31.105-3.095,42.322c19.405-1.701,34.675-18.041,34.675-37.881v-18.41c0-15.231-9.002-28.401-21.966-34.466
	C265.956,225.036,261.52,244.605,251.47,257.148z M206.998,261.59c0,15.244,9.016,28.422,21.995,34.48
	c-1.432-4.782-2.106-9.998-1.967-15.495c0.309-12.15,4.667-24.336,11.958-33.433c9.755-12.176,10.722-31.479,2.683-41.843
	c-19.402,1.704-34.67,18.042-34.67,37.88V261.59z M69.703,207.607c-4.418,0-8,3.582-8,8s3.582,8,8,8h1.33c4.418,0,8-3.582,8-8
	s-3.582-8-8-8H69.703z M260.182,85.932l-1.278-0.366c-4.247-1.215-8.677,1.239-9.895,5.486s1.239,8.678,5.486,9.895l1.278,0.366
	c0.737,0.211,1.478,0.312,2.208,0.312c3.479,0,6.68-2.287,7.687-5.798C266.886,91.58,264.429,87.149,260.182,85.932z
	 M100.551,254.087h-1.326c-4.418,0-8,3.582-8,8s3.582,8,8,8h1.326c4.418,0,8-3.582,8-8S104.969,254.087,100.551,254.087z
	 M202.138,69.308c-4.249-1.214-8.676,1.246-9.891,5.494s1.245,8.676,5.493,9.891l1.278,0.365c0.735,0.21,1.475,0.31,2.203,0.31
	c3.481,0,6.684-2.29,7.688-5.804c1.214-4.248-1.245-8.676-5.493-9.891L202.138,69.308z M159.594,254.087h-1.33c-4.418,0-8,3.582-8,8
	s3.582,8,8,8h1.33c4.418,0,8-3.582,8-8S164.013,254.087,159.594,254.087z M128.747,207.607c-4.418,0-8,3.582-8,8s3.582,8,8,8h1.33
	c4.418,0,8-3.582,8-8s-3.582-8-8-8H128.747z M159.594,161.127h-1.33c-4.418,0-8,3.582-8,8s3.582,8,8,8h1.33c4.418,0,8-3.582,8-8
	S164.013,161.127,159.594,161.127z M100.551,161.127h-1.326c-4.418,0-8,3.582-8,8s3.582,8,8,8h1.326c4.418,0,8-3.582,8-8
	S104.969,161.127,100.551,161.127z"/>
<g>
</g>
<g>
</g>
<g>
</g>
<g>
</g>
<g>
</g>
<g>
</g>
<g>
</g>
<g>
</g>
<g>
</g>
<g>
</g>
<g>
</g>
<g>
</g>
<g>
</g>
<g>
</g>
<g>
</g>
</svg>
