<svg height="512" viewBox="0 0 64 64" width="512" xmlns="http://www.w3.org/2000/svg"><g id="Coffee_grinder-2" data-name="Coffee grinder"><path d="m60.763 2.354a1 1 0 0 0 -.763-.354h-8a1 1 0 0 0 -.986 1.164l1 6a1 1 0 0 0 .986.836h2v2h-23a1 1 0 0 0 -1 1v3h-2a1 1 0 0 0 -1 1v3h-10a1 1 0 0 0 -.97 1.242l4 16a1 1 0 0 0 .97.758h1v2h-1a1 1 0 0 0 -.98.8l-2.326 11.631a8 8 0 0 0 7.845 9.569h10.922a8 8 0 0 0 7.845-9.569l-2.326-11.631a1 1 0 0 0 -.98-.8h-1v-2h1a1 1 0 0 0 .97-.758l4-16a1 1 0 0 0 -.97-1.242h-10v-3a1 1 0 0 0 -1-1h-2v-2h23a1 1 0 0 0 1-1v-3h2a1 1 0 0 0 .986-.836l1-6a1 1 0 0 0 -.223-.81zm-17.418 50.469a6 6 0 0 1 -5.884 7.177h-10.922a6 6 0 0 1 -5.884-7.177l2.165-10.823h18.36zm-4.345-12.823h-14v-2h14zm2.219-4h-18.438l-2.5-10h23.438zm3-12h-24.438l-.5-2h25.438zm-10.219-4h-4v-2h4zm24.153-12h-4.306l-.666-4h5.638z"/><path d="m31 46h2v10h-2z"/><path d="m27 46h2v10h-2z"/><path d="m35 46h2v10h-2z"/></g></svg>